solid Outil chasse neige
   facet normal 0.000000e+000 1.293074e-016 -1.000000e+000
      outer loop
         vertex 9.299999e+000 2.497552e+001 1.405460e+001
         vertex 9.299999e+000 4.000000e+000 1.405460e+001
         vertex 4.999999e+000 4.000000e+000 1.405460e+001
      endloop
   endfacet
   facet normal 0.000000e+000 1.293074e-016 -1.000000e+000
      outer loop
         vertex 1.900000e+001 4.000000e+000 1.405460e+001
         vertex 1.370000e+001 4.000000e+000 1.405460e+001
         vertex 1.900000e+001 2.383101e+001 1.405460e+001
      endloop
   endfacet
   facet normal 0.000000e+000 1.293074e-016 -1.000000e+000
      outer loop
         vertex 1.900000e+001 2.383101e+001 1.405460e+001
         vertex 1.370000e+001 4.000000e+000 1.405460e+001
         vertex 1.370000e+001 2.497552e+001 1.405460e+001
      endloop
   endfacet
   facet normal 0.000000e+000 1.293074e-016 -1.000000e+000
      outer loop
         vertex 4.999999e+000 4.000000e+000 1.405460e+001
         vertex 4.999999e+000 2.383101e+001 1.405460e+001
         vertex 9.299999e+000 2.497552e+001 1.405460e+001
      endloop
   endfacet
   facet normal 0.000000e+000 1.293074e-016 -1.000000e+000
      outer loop
         vertex 9.299999e+000 2.497552e+001 1.405460e+001
         vertex 4.999999e+000 2.383101e+001 1.405460e+001
         vertex 8.000000e+000 2.683101e+001 1.405460e+001
      endloop
   endfacet
   facet normal 0.000000e+000 1.293074e-016 -1.000000e+000
      outer loop
         vertex 9.299999e+000 2.497552e+001 1.405460e+001
         vertex 8.000000e+000 2.683101e+001 1.405460e+001
         vertex 1.370000e+001 2.497552e+001 1.405460e+001
      endloop
   endfacet
   facet normal 0.000000e+000 1.293074e-016 -1.000000e+000
      outer loop
         vertex 1.370000e+001 2.497552e+001 1.405460e+001
         vertex 8.000000e+000 2.683101e+001 1.405460e+001
         vertex 1.600000e+001 2.683101e+001 1.405460e+001
      endloop
   endfacet
   facet normal 0.000000e+000 1.293074e-016 -1.000000e+000
      outer loop
         vertex 1.370000e+001 2.497552e+001 1.405460e+001
         vertex 1.600000e+001 2.683101e+001 1.405460e+001
         vertex 1.900000e+001 2.383101e+001 1.405460e+001
      endloop
   endfacet
   facet normal 0.000000e+000 -7.071068e-001 -7.071068e-001
      outer loop
         vertex 1.370000e+001 2.400001e+000 1.565460e+001
         vertex 1.370000e+001 4.000000e+000 1.405460e+001
         vertex 1.670000e+001 2.400001e+000 1.565460e+001
      endloop
   endfacet
   facet normal 0.000000e+000 -7.071068e-001 -7.071068e-001
      outer loop
         vertex 1.670000e+001 2.400001e+000 1.565460e+001
         vertex 1.370000e+001 4.000000e+000 1.405460e+001
         vertex 1.900000e+001 4.000000e+000 1.405460e+001
      endloop
   endfacet
   facet normal 0.000000e+000 -7.071068e-001 -7.071068e-001
      outer loop
         vertex 1.670000e+001 2.400001e+000 1.565460e+001
         vertex 1.900000e+001 4.000000e+000 1.405460e+001
         vertex 1.670000e+001 0.000000e+000 1.805460e+001
      endloop
   endfacet
   facet normal 0.000000e+000 -7.071068e-001 -7.071068e-001
      outer loop
         vertex 1.670000e+001 0.000000e+000 1.805460e+001
         vertex 1.900000e+001 4.000000e+000 1.405460e+001
         vertex 1.900000e+001 0.000000e+000 1.805460e+001
      endloop
   endfacet
   facet normal 1.000000e+000 0.000000e+000 0.000000e+000
      outer loop
         vertex 5.500000e+001 1.412472e+001 2.178641e+001
         vertex 5.500000e+001 4.000000e+000 1.405460e+001
         vertex 5.500000e+001 1.816361e+001 2.123787e+001
      endloop
   endfacet
   facet normal 1.000000e+000 0.000000e+000 0.000000e+000
      outer loop
         vertex 5.500000e+001 1.816361e+001 2.123787e+001
         vertex 5.500000e+001 4.000000e+000 1.405460e+001
         vertex 5.500000e+001 2.383101e+001 1.405460e+001
      endloop
   endfacet
   facet normal 1.000000e+000 0.000000e+000 0.000000e+000
      outer loop
         vertex 5.500000e+001 1.816361e+001 2.123787e+001
         vertex 5.500000e+001 2.383101e+001 1.405460e+001
         vertex 5.500000e+001 2.223935e+001 2.128152e+001
      endloop
   endfacet
   facet normal 1.000000e+000 0.000000e+000 0.000000e+000
      outer loop
         vertex 5.500000e+001 2.223935e+001 2.128152e+001
         vertex 5.500000e+001 2.383101e+001 1.405460e+001
         vertex 5.500000e+001 2.383101e+001 2.146080e+001
      endloop
   endfacet
   facet normal 1.000000e+000 0.000000e+000 0.000000e+000
      outer loop
         vertex 5.500000e+001 1.412472e+001 2.178641e+001
         vertex 5.500000e+001 1.020827e+001 2.291553e+001
         vertex 5.500000e+001 4.000000e+000 1.405460e+001
      endloop
   endfacet
   facet normal 1.000000e+000 0.000000e+000 0.000000e+000
      outer loop
         vertex 5.500000e+001 4.000000e+000 1.405460e+001
         vertex 5.500000e+001 1.020827e+001 2.291553e+001
         vertex 5.500000e+001 6.497241e+000 2.460129e+001
      endloop
   endfacet
   facet normal 1.000000e+000 0.000000e+000 0.000000e+000
      outer loop
         vertex 5.500000e+001 4.000000e+000 1.405460e+001
         vertex 5.500000e+001 6.497241e+000 2.460129e+001
         vertex 5.500000e+001 0.000000e+000 1.805460e+001
      endloop
   endfacet
   facet normal 1.000000e+000 0.000000e+000 0.000000e+000
      outer loop
         vertex 5.500000e+001 0.000000e+000 1.805460e+001
         vertex 5.500000e+001 6.497241e+000 2.460129e+001
         vertex 5.500000e+001 3.070278e+000 2.680797e+001
      endloop
   endfacet
   facet normal 1.000000e+000 0.000000e+000 0.000000e+000
      outer loop
         vertex 5.500000e+001 0.000000e+000 1.805460e+001
         vertex 5.500000e+001 3.070278e+000 2.680797e+001
         vertex 5.500000e+001 0.000000e+000 2.948882e+001
      endloop
   endfacet
   facet normal -1.000000e+000 0.000000e+000 0.000000e+000
      outer loop
         vertex 4.999999e+000 2.223935e+001 2.128152e+001
         vertex 4.999999e+000 2.383101e+001 2.146080e+001
         vertex 4.999999e+000 2.383101e+001 1.405460e+001
      endloop
   endfacet
   facet normal -1.000000e+000 0.000000e+000 0.000000e+000
      outer loop
         vertex 4.999999e+000 6.497241e+000 2.460129e+001
         vertex 4.999999e+000 4.000000e+000 1.405460e+001
         vertex 4.999999e+000 3.070278e+000 2.680797e+001
      endloop
   endfacet
   facet normal -1.000000e+000 0.000000e+000 0.000000e+000
      outer loop
         vertex 4.999999e+000 3.070278e+000 2.680797e+001
         vertex 4.999999e+000 4.000000e+000 1.405460e+001
         vertex 4.999999e+000 0.000000e+000 1.805460e+001
      endloop
   endfacet
   facet normal -1.000000e+000 0.000000e+000 0.000000e+000
      outer loop
         vertex 4.999999e+000 3.070278e+000 2.680797e+001
         vertex 4.999999e+000 0.000000e+000 1.805460e+001
         vertex 4.999999e+000 0.000000e+000 2.948882e+001
      endloop
   endfacet
   facet normal -1.000000e+000 0.000000e+000 0.000000e+000
      outer loop
         vertex 4.999999e+000 6.497241e+000 2.460129e+001
         vertex 4.999999e+000 1.020827e+001 2.291553e+001
         vertex 4.999999e+000 4.000000e+000 1.405460e+001
      endloop
   endfacet
   facet normal -1.000000e+000 0.000000e+000 0.000000e+000
      outer loop
         vertex 4.999999e+000 4.000000e+000 1.405460e+001
         vertex 4.999999e+000 1.020827e+001 2.291553e+001
         vertex 4.999999e+000 1.412472e+001 2.178641e+001
      endloop
   endfacet
   facet normal -1.000000e+000 0.000000e+000 0.000000e+000
      outer loop
         vertex 4.999999e+000 4.000000e+000 1.405460e+001
         vertex 4.999999e+000 1.412472e+001 2.178641e+001
         vertex 4.999999e+000 2.383101e+001 1.405460e+001
      endloop
   endfacet
   facet normal -1.000000e+000 0.000000e+000 0.000000e+000
      outer loop
         vertex 4.999999e+000 2.383101e+001 1.405460e+001
         vertex 4.999999e+000 1.412472e+001 2.178641e+001
         vertex 4.999999e+000 1.816361e+001 2.123787e+001
      endloop
   endfacet
   facet normal -1.000000e+000 0.000000e+000 0.000000e+000
      outer loop
         vertex 4.999999e+000 2.383101e+001 1.405460e+001
         vertex 4.999999e+000 1.816361e+001 2.123787e+001
         vertex 4.999999e+000 2.223935e+001 2.128152e+001
      endloop
   endfacet
   facet normal 1.000000e+000 0.000000e+000 0.000000e+000
      outer loop
         vertex 4.630000e+001 4.000000e+000 1.405460e+001
         vertex 4.630000e+001 2.497552e+001 1.405460e+001
         vertex 4.630000e+001 2.398577e+001 1.451613e+001
      endloop
   endfacet
   facet normal 1.000000e+000 0.000000e+000 0.000000e+000
      outer loop
         vertex 4.630000e+001 2.294805e+001 1.565460e+001
         vertex 4.630000e+001 2.400001e+000 1.565460e+001
         vertex 4.630000e+001 2.297231e+001 1.559033e+001
      endloop
   endfacet
   facet normal 1.000000e+000 0.000000e+000 0.000000e+000
      outer loop
         vertex 4.630000e+001 2.297231e+001 1.559033e+001
         vertex 4.630000e+001 2.400001e+000 1.565460e+001
         vertex 4.630000e+001 4.000000e+000 1.405460e+001
      endloop
   endfacet
   facet normal 1.000000e+000 0.000000e+000 0.000000e+000
      outer loop
         vertex 4.630000e+001 2.297231e+001 1.559033e+001
         vertex 4.630000e+001 4.000000e+000 1.405460e+001
         vertex 4.630000e+001 2.337626e+001 1.495626e+001
      endloop
   endfacet
   facet normal 1.000000e+000 0.000000e+000 0.000000e+000
      outer loop
         vertex 4.630000e+001 2.337626e+001 1.495626e+001
         vertex 4.630000e+001 4.000000e+000 1.405460e+001
         vertex 4.630000e+001 2.398577e+001 1.451613e+001
      endloop
   endfacet
   facet normal 0.000000e+000 0.000000e+000 1.000000e+000
      outer loop
         vertex 4.630000e+001 2.400001e+000 1.565460e+001
         vertex 4.630000e+001 2.294805e+001 1.565460e+001
         vertex 4.330000e+001 2.400001e+000 1.565460e+001
      endloop
   endfacet
   facet normal 0.000000e+000 0.000000e+000 1.000000e+000
      outer loop
         vertex 4.330000e+001 2.400001e+000 1.565460e+001
         vertex 4.630000e+001 2.294805e+001 1.565460e+001
         vertex 4.330000e+001 2.294805e+001 1.565460e+001
      endloop
   endfacet
   facet normal 1.000000e+000 0.000000e+000 0.000000e+000
      outer loop
         vertex 4.330000e+001 2.400001e+000 1.565460e+001
         vertex 4.330000e+001 2.294805e+001 1.565460e+001
         vertex 4.330000e+001 2.283101e+001 1.632874e+001
      endloop
   endfacet
   facet normal 1.000000e+000 0.000000e+000 0.000000e+000
      outer loop
         vertex 4.330000e+001 2.400001e+000 1.565460e+001
         vertex 4.330000e+001 2.283101e+001 1.632874e+001
         vertex 4.330000e+001 0.000000e+000 1.805460e+001
      endloop
   endfacet
   facet normal 1.000000e+000 0.000000e+000 0.000000e+000
      outer loop
         vertex 4.330000e+001 0.000000e+000 1.805460e+001
         vertex 4.330000e+001 2.283101e+001 1.632874e+001
         vertex 4.330000e+001 2.283101e+001 1.905460e+001
      endloop
   endfacet
   facet normal 1.000000e+000 0.000000e+000 0.000000e+000
      outer loop
         vertex 4.330000e+001 0.000000e+000 1.805460e+001
         vertex 4.330000e+001 2.283101e+001 1.905460e+001
         vertex 4.330000e+001 0.000000e+000 1.905460e+001
      endloop
   endfacet
   facet normal 0.000000e+000 0.000000e+000 -1.000000e+000
      outer loop
         vertex 5.070000e+001 0.000000e+000 1.905460e+001
         vertex 4.330000e+001 0.000000e+000 1.905460e+001
         vertex 5.070000e+001 2.283101e+001 1.905460e+001
      endloop
   endfacet
   facet normal 0.000000e+000 0.000000e+000 -1.000000e+000
      outer loop
         vertex 5.070000e+001 2.283101e+001 1.905460e+001
         vertex 4.330000e+001 0.000000e+000 1.905460e+001
         vertex 4.330000e+001 2.283101e+001 1.905460e+001
      endloop
   endfacet
   facet normal -1.000000e+000 0.000000e+000 0.000000e+000
      outer loop
         vertex 5.070000e+001 2.283101e+001 1.632874e+001
         vertex 5.070000e+001 2.297231e+001 1.559033e+001
         vertex 5.070000e+001 4.000000e+000 1.405460e+001
      endloop
   endfacet
   facet normal -1.000000e+000 0.000000e+000 0.000000e+000
      outer loop
         vertex 5.070000e+001 2.297231e+001 1.559033e+001
         vertex 5.070000e+001 2.337626e+001 1.495626e+001
         vertex 5.070000e+001 4.000000e+000 1.405460e+001
      endloop
   endfacet
   facet normal -1.000000e+000 0.000000e+000 0.000000e+000
      outer loop
         vertex 5.070000e+001 4.000000e+000 1.405460e+001
         vertex 5.070000e+001 2.337626e+001 1.495626e+001
         vertex 5.070000e+001 2.398577e+001 1.451613e+001
      endloop
   endfacet
   facet normal -1.000000e+000 0.000000e+000 0.000000e+000
      outer loop
         vertex 5.070000e+001 4.000000e+000 1.405460e+001
         vertex 5.070000e+001 2.398577e+001 1.451613e+001
         vertex 5.070000e+001 2.497552e+001 1.405460e+001
      endloop
   endfacet
   facet normal -1.000000e+000 0.000000e+000 0.000000e+000
      outer loop
         vertex 5.070000e+001 2.283101e+001 1.632874e+001
         vertex 5.070000e+001 4.000000e+000 1.405460e+001
         vertex 5.070000e+001 2.283101e+001 1.905460e+001
      endloop
   endfacet
   facet normal -1.000000e+000 0.000000e+000 0.000000e+000
      outer loop
         vertex 5.070000e+001 2.283101e+001 1.905460e+001
         vertex 5.070000e+001 4.000000e+000 1.405460e+001
         vertex 5.070000e+001 0.000000e+000 1.805460e+001
      endloop
   endfacet
   facet normal -1.000000e+000 0.000000e+000 0.000000e+000
      outer loop
         vertex 5.070000e+001 2.283101e+001 1.905460e+001
         vertex 5.070000e+001 0.000000e+000 1.805460e+001
         vertex 5.070000e+001 0.000000e+000 1.905460e+001
      endloop
   endfacet
   facet normal 1.000000e+000 0.000000e+000 0.000000e+000
      outer loop
         vertex 9.299999e+000 2.337626e+001 1.495626e+001
         vertex 9.299999e+000 4.000000e+000 1.405460e+001
         vertex 9.299999e+000 2.398577e+001 1.451613e+001
      endloop
   endfacet
   facet normal 1.000000e+000 0.000000e+000 0.000000e+000
      outer loop
         vertex 9.299999e+000 2.398577e+001 1.451613e+001
         vertex 9.299999e+000 4.000000e+000 1.405460e+001
         vertex 9.299999e+000 2.497552e+001 1.405460e+001
      endloop
   endfacet
   facet normal 1.000000e+000 0.000000e+000 0.000000e+000
      outer loop
         vertex 9.299999e+000 2.337626e+001 1.495626e+001
         vertex 9.299999e+000 2.297231e+001 1.559033e+001
         vertex 9.299999e+000 4.000000e+000 1.405460e+001
      endloop
   endfacet
   facet normal 1.000000e+000 0.000000e+000 0.000000e+000
      outer loop
         vertex 9.299999e+000 4.000000e+000 1.405460e+001
         vertex 9.299999e+000 2.297231e+001 1.559033e+001
         vertex 9.299999e+000 2.283101e+001 1.632874e+001
      endloop
   endfacet
   facet normal 1.000000e+000 0.000000e+000 0.000000e+000
      outer loop
         vertex 9.299999e+000 4.000000e+000 1.405460e+001
         vertex 9.299999e+000 2.283101e+001 1.632874e+001
         vertex 9.299999e+000 0.000000e+000 1.805460e+001
      endloop
   endfacet
   facet normal 1.000000e+000 0.000000e+000 0.000000e+000
      outer loop
         vertex 9.299999e+000 0.000000e+000 1.805460e+001
         vertex 9.299999e+000 2.283101e+001 1.632874e+001
         vertex 9.299999e+000 2.283101e+001 1.905460e+001
      endloop
   endfacet
   facet normal 1.000000e+000 0.000000e+000 0.000000e+000
      outer loop
         vertex 9.299999e+000 0.000000e+000 1.805460e+001
         vertex 9.299999e+000 2.283101e+001 1.905460e+001
         vertex 9.299999e+000 0.000000e+000 1.905460e+001
      endloop
   endfacet
   facet normal 0.000000e+000 0.000000e+000 -1.000000e+000
      outer loop
         vertex 1.670000e+001 0.000000e+000 1.905460e+001
         vertex 9.299999e+000 0.000000e+000 1.905460e+001
         vertex 1.670000e+001 2.283101e+001 1.905460e+001
      endloop
   endfacet
   facet normal 0.000000e+000 0.000000e+000 -1.000000e+000
      outer loop
         vertex 1.670000e+001 2.283101e+001 1.905460e+001
         vertex 9.299999e+000 0.000000e+000 1.905460e+001
         vertex 9.299999e+000 2.283101e+001 1.905460e+001
      endloop
   endfacet
   facet normal -1.000000e+000 0.000000e+000 0.000000e+000
      outer loop
         vertex 1.670000e+001 2.283101e+001 1.632874e+001
         vertex 1.670000e+001 2.294805e+001 1.565460e+001
         vertex 1.670000e+001 2.400001e+000 1.565460e+001
      endloop
   endfacet
   facet normal -1.000000e+000 0.000000e+000 0.000000e+000
      outer loop
         vertex 1.670000e+001 2.283101e+001 1.632874e+001
         vertex 1.670000e+001 2.400001e+000 1.565460e+001
         vertex 1.670000e+001 2.283101e+001 1.905460e+001
      endloop
   endfacet
   facet normal -1.000000e+000 0.000000e+000 0.000000e+000
      outer loop
         vertex 1.670000e+001 2.283101e+001 1.905460e+001
         vertex 1.670000e+001 2.400001e+000 1.565460e+001
         vertex 1.670000e+001 0.000000e+000 1.805460e+001
      endloop
   endfacet
   facet normal -1.000000e+000 0.000000e+000 0.000000e+000
      outer loop
         vertex 1.670000e+001 2.283101e+001 1.905460e+001
         vertex 1.670000e+001 0.000000e+000 1.805460e+001
         vertex 1.670000e+001 0.000000e+000 1.905460e+001
      endloop
   endfacet
   facet normal 0.000000e+000 0.000000e+000 1.000000e+000
      outer loop
         vertex 1.670000e+001 2.400001e+000 1.565460e+001
         vertex 1.670000e+001 2.294805e+001 1.565460e+001
         vertex 1.370000e+001 2.400001e+000 1.565460e+001
      endloop
   endfacet
   facet normal 0.000000e+000 0.000000e+000 1.000000e+000
      outer loop
         vertex 1.370000e+001 2.400001e+000 1.565460e+001
         vertex 1.670000e+001 2.294805e+001 1.565460e+001
         vertex 1.370000e+001 2.294805e+001 1.565460e+001
      endloop
   endfacet
   facet normal -1.000000e+000 0.000000e+000 0.000000e+000
      outer loop
         vertex 1.370000e+001 2.497552e+001 1.405460e+001
         vertex 1.370000e+001 4.000000e+000 1.405460e+001
         vertex 1.370000e+001 2.398577e+001 1.451613e+001
      endloop
   endfacet
   facet normal -1.000000e+000 0.000000e+000 0.000000e+000
      outer loop
         vertex 1.370000e+001 2.398577e+001 1.451613e+001
         vertex 1.370000e+001 4.000000e+000 1.405460e+001
         vertex 1.370000e+001 2.337626e+001 1.495626e+001
      endloop
   endfacet
   facet normal -1.000000e+000 0.000000e+000 0.000000e+000
      outer loop
         vertex 1.370000e+001 2.400001e+000 1.565460e+001
         vertex 1.370000e+001 2.294805e+001 1.565460e+001
         vertex 1.370000e+001 4.000000e+000 1.405460e+001
      endloop
   endfacet
   facet normal -1.000000e+000 0.000000e+000 0.000000e+000
      outer loop
         vertex 1.370000e+001 4.000000e+000 1.405460e+001
         vertex 1.370000e+001 2.294805e+001 1.565460e+001
         vertex 1.370000e+001 2.297231e+001 1.559033e+001
      endloop
   endfacet
   facet normal -1.000000e+000 0.000000e+000 0.000000e+000
      outer loop
         vertex 1.370000e+001 4.000000e+000 1.405460e+001
         vertex 1.370000e+001 2.297231e+001 1.559033e+001
         vertex 1.370000e+001 2.337626e+001 1.495626e+001
      endloop
   endfacet
   facet normal 0.000000e+000 1.000000e+000 0.000000e+000
      outer loop
         vertex 1.600000e+001 2.683101e+001 1.405460e+001
         vertex 8.000000e+000 2.683101e+001 1.405460e+001
         vertex 1.600000e+001 2.683101e+001 1.855460e+001
      endloop
   endfacet
   facet normal 0.000000e+000 1.000000e+000 0.000000e+000
      outer loop
         vertex 1.600000e+001 2.683101e+001 1.855460e+001
         vertex 8.000000e+000 2.683101e+001 1.405460e+001
         vertex 8.000000e+000 2.683101e+001 2.205460e+001
      endloop
   endfacet
   facet normal 0.000000e+000 1.000000e+000 0.000000e+000
      outer loop
         vertex 1.600000e+001 2.683101e+001 1.855460e+001
         vertex 8.000000e+000 2.683101e+001 2.205460e+001
         vertex 4.400000e+001 2.683101e+001 1.855460e+001
      endloop
   endfacet
   facet normal 0.000000e+000 1.000000e+000 0.000000e+000
      outer loop
         vertex 4.400000e+001 2.683101e+001 1.855460e+001
         vertex 8.000000e+000 2.683101e+001 2.205460e+001
         vertex 5.200000e+001 2.683101e+001 2.205460e+001
      endloop
   endfacet
   facet normal 0.000000e+000 1.000000e+000 0.000000e+000
      outer loop
         vertex 4.400000e+001 2.683101e+001 1.855460e+001
         vertex 5.200000e+001 2.683101e+001 2.205460e+001
         vertex 4.400000e+001 2.683101e+001 1.405460e+001
      endloop
   endfacet
   facet normal 0.000000e+000 1.000000e+000 0.000000e+000
      outer loop
         vertex 4.400000e+001 2.683101e+001 1.405460e+001
         vertex 5.200000e+001 2.683101e+001 2.205460e+001
         vertex 5.200000e+001 2.683101e+001 1.405460e+001
      endloop
   endfacet
   facet normal 0.000000e+000 -1.000000e+000 0.000000e+000
      outer loop
         vertex 6.000000e+001 0.000000e+000 3.405460e+001
         vertex 0.000000e+000 0.000000e+000 3.405460e+001
         vertex 4.999999e+000 0.000000e+000 2.948882e+001
      endloop
   endfacet
   facet normal 0.000000e+000 -1.000000e+000 0.000000e+000
      outer loop
         vertex 4.999999e+000 0.000000e+000 2.948882e+001
         vertex 0.000000e+000 0.000000e+000 3.405460e+001
         vertex 0.000000e+000 0.000000e+000 2.948882e+001
      endloop
   endfacet
   facet normal 0.000000e+000 -1.000000e+000 0.000000e+000
      outer loop
         vertex 4.999999e+000 0.000000e+000 1.805460e+001
         vertex 9.299999e+000 0.000000e+000 1.805460e+001
         vertex 4.999999e+000 0.000000e+000 2.948882e+001
      endloop
   endfacet
   facet normal 0.000000e+000 -1.000000e+000 0.000000e+000
      outer loop
         vertex 4.999999e+000 0.000000e+000 2.948882e+001
         vertex 9.299999e+000 0.000000e+000 1.805460e+001
         vertex 9.299999e+000 0.000000e+000 1.905460e+001
      endloop
   endfacet
   facet normal 0.000000e+000 -1.000000e+000 0.000000e+000
      outer loop
         vertex 1.670000e+001 0.000000e+000 1.805460e+001
         vertex 1.900000e+001 0.000000e+000 1.805460e+001
         vertex 1.670000e+001 0.000000e+000 1.905460e+001
      endloop
   endfacet
   facet normal 0.000000e+000 -1.000000e+000 0.000000e+000
      outer loop
         vertex 1.670000e+001 0.000000e+000 1.905460e+001
         vertex 1.900000e+001 0.000000e+000 1.805460e+001
         vertex 1.900000e+001 0.000000e+000 2.355460e+001
      endloop
   endfacet
   facet normal 0.000000e+000 -1.000000e+000 0.000000e+000
      outer loop
         vertex 5.500000e+001 0.000000e+000 2.948882e+001
         vertex 6.000000e+001 0.000000e+000 2.948882e+001
         vertex 6.000000e+001 0.000000e+000 3.405460e+001
      endloop
   endfacet
   facet normal 0.000000e+000 -1.000000e+000 0.000000e+000
      outer loop
         vertex 4.100000e+001 0.000000e+000 1.805460e+001
         vertex 4.330000e+001 0.000000e+000 1.805460e+001
         vertex 4.100000e+001 0.000000e+000 2.355460e+001
      endloop
   endfacet
   facet normal 0.000000e+000 -1.000000e+000 0.000000e+000
      outer loop
         vertex 4.100000e+001 0.000000e+000 2.355460e+001
         vertex 4.330000e+001 0.000000e+000 1.805460e+001
         vertex 4.330000e+001 0.000000e+000 1.905460e+001
      endloop
   endfacet
   facet normal 0.000000e+000 -1.000000e+000 0.000000e+000
      outer loop
         vertex 4.100000e+001 0.000000e+000 2.355460e+001
         vertex 4.330000e+001 0.000000e+000 1.905460e+001
         vertex 5.070000e+001 0.000000e+000 1.905460e+001
      endloop
   endfacet
   facet normal 0.000000e+000 -1.000000e+000 0.000000e+000
      outer loop
         vertex 5.070000e+001 0.000000e+000 1.805460e+001
         vertex 5.500000e+001 0.000000e+000 1.805460e+001
         vertex 5.070000e+001 0.000000e+000 1.905460e+001
      endloop
   endfacet
   facet normal 0.000000e+000 -1.000000e+000 0.000000e+000
      outer loop
         vertex 5.070000e+001 0.000000e+000 1.905460e+001
         vertex 5.500000e+001 0.000000e+000 1.805460e+001
         vertex 5.500000e+001 0.000000e+000 2.948882e+001
      endloop
   endfacet
   facet normal 0.000000e+000 -1.000000e+000 0.000000e+000
      outer loop
         vertex 5.070000e+001 0.000000e+000 1.905460e+001
         vertex 5.500000e+001 0.000000e+000 2.948882e+001
         vertex 4.100000e+001 0.000000e+000 2.355460e+001
      endloop
   endfacet
   facet normal 0.000000e+000 -1.000000e+000 0.000000e+000
      outer loop
         vertex 4.100000e+001 0.000000e+000 2.355460e+001
         vertex 5.500000e+001 0.000000e+000 2.948882e+001
         vertex 6.000000e+001 0.000000e+000 3.405460e+001
      endloop
   endfacet
   facet normal 0.000000e+000 -1.000000e+000 0.000000e+000
      outer loop
         vertex 4.100000e+001 0.000000e+000 2.355460e+001
         vertex 6.000000e+001 0.000000e+000 3.405460e+001
         vertex 1.900000e+001 0.000000e+000 2.355460e+001
      endloop
   endfacet
   facet normal 0.000000e+000 -1.000000e+000 0.000000e+000
      outer loop
         vertex 1.900000e+001 0.000000e+000 2.355460e+001
         vertex 6.000000e+001 0.000000e+000 3.405460e+001
         vertex 4.999999e+000 0.000000e+000 2.948882e+001
      endloop
   endfacet
   facet normal 0.000000e+000 -1.000000e+000 0.000000e+000
      outer loop
         vertex 1.900000e+001 0.000000e+000 2.355460e+001
         vertex 4.999999e+000 0.000000e+000 2.948882e+001
         vertex 1.670000e+001 0.000000e+000 1.905460e+001
      endloop
   endfacet
   facet normal 0.000000e+000 -1.000000e+000 0.000000e+000
      outer loop
         vertex 1.670000e+001 0.000000e+000 1.905460e+001
         vertex 4.999999e+000 0.000000e+000 2.948882e+001
         vertex 9.299999e+000 0.000000e+000 1.905460e+001
      endloop
   endfacet
   facet normal 0.000000e+000 1.293074e-016 -1.000000e+000
      outer loop
         vertex 5.200000e+001 2.683101e+001 1.405460e+001
         vertex 5.500000e+001 2.383101e+001 1.405460e+001
         vertex 5.070000e+001 2.497552e+001 1.405460e+001
      endloop
   endfacet
   facet normal 0.000000e+000 1.293074e-016 -1.000000e+000
      outer loop
         vertex 5.070000e+001 2.497552e+001 1.405460e+001
         vertex 5.500000e+001 2.383101e+001 1.405460e+001
         vertex 5.500000e+001 4.000000e+000 1.405460e+001
      endloop
   endfacet
   facet normal 0.000000e+000 1.293074e-016 -1.000000e+000
      outer loop
         vertex 5.070000e+001 2.497552e+001 1.405460e+001
         vertex 5.500000e+001 4.000000e+000 1.405460e+001
         vertex 5.070000e+001 4.000000e+000 1.405460e+001
      endloop
   endfacet
   facet normal 0.000000e+000 1.293074e-016 -1.000000e+000
      outer loop
         vertex 5.200000e+001 2.683101e+001 1.405460e+001
         vertex 5.070000e+001 2.497552e+001 1.405460e+001
         vertex 4.400000e+001 2.683101e+001 1.405460e+001
      endloop
   endfacet
   facet normal 0.000000e+000 1.293074e-016 -1.000000e+000
      outer loop
         vertex 4.400000e+001 2.683101e+001 1.405460e+001
         vertex 5.070000e+001 2.497552e+001 1.405460e+001
         vertex 4.630000e+001 2.497552e+001 1.405460e+001
      endloop
   endfacet
   facet normal 0.000000e+000 1.293074e-016 -1.000000e+000
      outer loop
         vertex 4.400000e+001 2.683101e+001 1.405460e+001
         vertex 4.630000e+001 2.497552e+001 1.405460e+001
         vertex 4.100000e+001 2.383101e+001 1.405460e+001
      endloop
   endfacet
   facet normal 0.000000e+000 1.293074e-016 -1.000000e+000
      outer loop
         vertex 4.100000e+001 2.383101e+001 1.405460e+001
         vertex 4.630000e+001 2.497552e+001 1.405460e+001
         vertex 4.630000e+001 4.000000e+000 1.405460e+001
      endloop
   endfacet
   facet normal 0.000000e+000 1.293074e-016 -1.000000e+000
      outer loop
         vertex 4.100000e+001 2.383101e+001 1.405460e+001
         vertex 4.630000e+001 4.000000e+000 1.405460e+001
         vertex 4.100000e+001 4.000000e+000 1.405460e+001
      endloop
   endfacet
   facet normal 0.000000e+000 -4.226183e-001 -9.063079e-001
      outer loop
         vertex 9.299999e+000 2.497552e+001 1.405460e+001
         vertex 1.370000e+001 2.497552e+001 1.405460e+001
         vertex 9.299999e+000 2.398577e+001 1.451613e+001
      endloop
   endfacet
   facet normal 0.000000e+000 -4.226183e-001 -9.063079e-001
      outer loop
         vertex 9.299999e+000 2.398577e+001 1.451613e+001
         vertex 1.370000e+001 2.497552e+001 1.405460e+001
         vertex 1.370000e+001 2.398577e+001 1.451613e+001
      endloop
   endfacet
   facet normal 0.000000e+000 -9.737327e-001 -2.276941e-001
      outer loop
         vertex 1.670000e+001 2.294805e+001 1.565460e+001
         vertex 1.670000e+001 2.283101e+001 1.632874e+001
         vertex 1.370000e+001 2.294805e+001 1.565460e+001
      endloop
   endfacet
   facet normal 0.000000e+000 -9.934983e-001 -1.138470e-001
      outer loop
         vertex 1.370000e+001 2.294805e+001 1.565460e+001
         vertex 1.670000e+001 2.283101e+001 1.632874e+001
         vertex 9.299999e+000 2.283101e+001 1.632874e+001
      endloop
   endfacet
   facet normal 0.000000e+000 -9.710454e-001 -2.388951e-001
      outer loop
         vertex 1.370000e+001 2.294805e+001 1.565460e+001
         vertex 9.299999e+000 2.283101e+001 1.632874e+001
         vertex 1.370000e+001 2.297231e+001 1.559033e+001
      endloop
   endfacet
   facet normal 0.000000e+000 -9.682212e-001 -2.500954e-001
      outer loop
         vertex 9.299999e+000 2.283101e+001 1.632874e+001
         vertex 9.299999e+000 2.297231e+001 1.559033e+001
         vertex 1.370000e+001 2.297231e+001 1.559033e+001
      endloop
   endfacet
   facet normal 0.000000e+000 -8.758845e-001 -4.825209e-001
      outer loop
         vertex 1.370000e+001 2.297231e+001 1.559033e+001
         vertex 9.299999e+000 2.297231e+001 1.559033e+001
         vertex 9.299999e+000 2.337626e+001 1.495626e+001
      endloop
   endfacet
   facet normal 0.000000e+000 -8.074772e-001 -5.898988e-001
      outer loop
         vertex 1.370000e+001 2.297231e+001 1.559033e+001
         vertex 9.299999e+000 2.337626e+001 1.495626e+001
         vertex 1.370000e+001 2.337626e+001 1.495626e+001
      endloop
   endfacet
   facet normal 0.000000e+000 -6.358514e-001 -7.718115e-001
      outer loop
         vertex 1.370000e+001 2.337626e+001 1.495626e+001
         vertex 9.299999e+000 2.337626e+001 1.495626e+001
         vertex 9.299999e+000 2.398577e+001 1.451613e+001
      endloop
   endfacet
   facet normal 0.000000e+000 -5.326327e-001 -8.463465e-001
      outer loop
         vertex 1.370000e+001 2.337626e+001 1.495626e+001
         vertex 9.299999e+000 2.398577e+001 1.451613e+001
         vertex 1.370000e+001 2.398577e+001 1.451613e+001
      endloop
   endfacet
   facet normal 0.000000e+000 -1.000000e+000 0.000000e+000
      outer loop
         vertex 9.299999e+000 2.283101e+001 1.632874e+001
         vertex 1.670000e+001 2.283101e+001 1.632874e+001
         vertex 9.299999e+000 2.283101e+001 1.905460e+001
      endloop
   endfacet
   facet normal 0.000000e+000 -1.000000e+000 0.000000e+000
      outer loop
         vertex 9.299999e+000 2.283101e+001 1.905460e+001
         vertex 1.670000e+001 2.283101e+001 1.632874e+001
         vertex 1.670000e+001 2.283101e+001 1.905460e+001
      endloop
   endfacet
   facet normal 0.000000e+000 -1.000000e+000 0.000000e+000
      outer loop
         vertex 4.330000e+001 2.283101e+001 1.632874e+001
         vertex 5.070000e+001 2.283101e+001 1.632874e+001
         vertex 4.330000e+001 2.283101e+001 1.905460e+001
      endloop
   endfacet
   facet normal 0.000000e+000 -1.000000e+000 0.000000e+000
      outer loop
         vertex 4.330000e+001 2.283101e+001 1.905460e+001
         vertex 5.070000e+001 2.283101e+001 1.632874e+001
         vertex 5.070000e+001 2.283101e+001 1.905460e+001
      endloop
   endfacet
   facet normal 0.000000e+000 -5.326326e-001 -8.463465e-001
      outer loop
         vertex 4.630000e+001 2.398577e+001 1.451613e+001
         vertex 5.070000e+001 2.398577e+001 1.451613e+001
         vertex 5.070000e+001 2.337626e+001 1.495626e+001
      endloop
   endfacet
   facet normal 0.000000e+000 -6.358514e-001 -7.718115e-001
      outer loop
         vertex 4.630000e+001 2.398577e+001 1.451613e+001
         vertex 5.070000e+001 2.337626e+001 1.495626e+001
         vertex 4.630000e+001 2.337626e+001 1.495626e+001
      endloop
   endfacet
   facet normal 0.000000e+000 -8.074772e-001 -5.898988e-001
      outer loop
         vertex 4.630000e+001 2.337626e+001 1.495626e+001
         vertex 5.070000e+001 2.337626e+001 1.495626e+001
         vertex 5.070000e+001 2.297231e+001 1.559033e+001
      endloop
   endfacet
   facet normal 0.000000e+000 -8.758845e-001 -4.825209e-001
      outer loop
         vertex 4.630000e+001 2.337626e+001 1.495626e+001
         vertex 5.070000e+001 2.297231e+001 1.559033e+001
         vertex 4.630000e+001 2.297231e+001 1.559033e+001
      endloop
   endfacet
   facet normal 0.000000e+000 -9.737327e-001 -2.276941e-001
      outer loop
         vertex 4.330000e+001 2.283101e+001 1.632874e+001
         vertex 4.330000e+001 2.294805e+001 1.565460e+001
         vertex 4.630000e+001 2.294805e+001 1.565460e+001
      endloop
   endfacet
   facet normal 0.000000e+000 -9.335139e-001 -3.585412e-001
      outer loop
         vertex 4.630000e+001 2.297231e+001 1.559033e+001
         vertex 5.070000e+001 2.297231e+001 1.559033e+001
         vertex 4.630000e+001 2.294805e+001 1.565460e+001
      endloop
   endfacet
   facet normal 0.000000e+000 -9.710454e-001 -2.388951e-001
      outer loop
         vertex 4.630000e+001 2.294805e+001 1.565460e+001
         vertex 5.070000e+001 2.297231e+001 1.559033e+001
         vertex 5.070000e+001 2.283101e+001 1.632874e+001
      endloop
   endfacet
   facet normal 0.000000e+000 -9.934983e-001 -1.138470e-001
      outer loop
         vertex 4.630000e+001 2.294805e+001 1.565460e+001
         vertex 5.070000e+001 2.283101e+001 1.632874e+001
         vertex 4.330000e+001 2.283101e+001 1.632874e+001
      endloop
   endfacet
   facet normal 0.000000e+000 -4.226183e-001 -9.063079e-001
      outer loop
         vertex 4.630000e+001 2.497552e+001 1.405460e+001
         vertex 5.070000e+001 2.497552e+001 1.405460e+001
         vertex 4.630000e+001 2.398577e+001 1.451613e+001
      endloop
   endfacet
   facet normal 0.000000e+000 -4.226183e-001 -9.063079e-001
      outer loop
         vertex 4.630000e+001 2.398577e+001 1.451613e+001
         vertex 5.070000e+001 2.497552e+001 1.405460e+001
         vertex 5.070000e+001 2.398577e+001 1.451613e+001
      endloop
   endfacet
   facet normal 0.000000e+000 -7.071068e-001 -7.071068e-001
      outer loop
         vertex 4.999999e+000 0.000000e+000 1.805460e+001
         vertex 4.999999e+000 4.000000e+000 1.405460e+001
         vertex 9.299999e+000 0.000000e+000 1.805460e+001
      endloop
   endfacet
   facet normal 0.000000e+000 -7.071068e-001 -7.071068e-001
      outer loop
         vertex 9.299999e+000 0.000000e+000 1.805460e+001
         vertex 4.999999e+000 4.000000e+000 1.405460e+001
         vertex 9.299999e+000 4.000000e+000 1.405460e+001
      endloop
   endfacet
   facet normal 0.000000e+000 -7.071068e-001 -7.071068e-001
      outer loop
         vertex 4.330000e+001 0.000000e+000 1.805460e+001
         vertex 4.100000e+001 0.000000e+000 1.805460e+001
         vertex 4.330000e+001 2.400001e+000 1.565460e+001
      endloop
   endfacet
   facet normal 0.000000e+000 -7.071068e-001 -7.071068e-001
      outer loop
         vertex 4.330000e+001 2.400001e+000 1.565460e+001
         vertex 4.100000e+001 0.000000e+000 1.805460e+001
         vertex 4.100000e+001 4.000000e+000 1.405460e+001
      endloop
   endfacet
   facet normal 0.000000e+000 -7.071068e-001 -7.071068e-001
      outer loop
         vertex 4.330000e+001 2.400001e+000 1.565460e+001
         vertex 4.100000e+001 4.000000e+000 1.405460e+001
         vertex 4.630000e+001 2.400001e+000 1.565460e+001
      endloop
   endfacet
   facet normal 0.000000e+000 -7.071068e-001 -7.071068e-001
      outer loop
         vertex 4.630000e+001 2.400001e+000 1.565460e+001
         vertex 4.100000e+001 4.000000e+000 1.405460e+001
         vertex 4.630000e+001 4.000000e+000 1.405460e+001
      endloop
   endfacet
   facet normal 0.000000e+000 -7.071068e-001 -7.071068e-001
      outer loop
         vertex 5.070000e+001 0.000000e+000 1.805460e+001
         vertex 5.070000e+001 4.000000e+000 1.405460e+001
         vertex 5.500000e+001 0.000000e+000 1.805460e+001
      endloop
   endfacet
   facet normal 0.000000e+000 -7.071068e-001 -7.071068e-001
      outer loop
         vertex 5.500000e+001 0.000000e+000 1.805460e+001
         vertex 5.070000e+001 4.000000e+000 1.405460e+001
         vertex 5.500000e+001 4.000000e+000 1.405460e+001
      endloop
   endfacet
   facet normal 0.000000e+000 -4.504943e-001 8.927793e-001
      outer loop
         vertex 6.000000e+001 3.233866e+001 2.749650e+001
         vertex 0.000000e+000 3.233866e+001 2.749650e+001
         vertex 0.000000e+000 2.872080e+001 2.579074e+001
      endloop
   endfacet
   facet normal 0.000000e+000 -4.021183e-001 9.155877e-001
      outer loop
         vertex 6.000000e+001 3.233866e+001 2.749650e+001
         vertex 0.000000e+000 2.872080e+001 2.579074e+001
         vertex 6.000000e+001 2.872080e+001 2.579074e+001
      endloop
   endfacet
   facet normal 0.000000e+000 -3.023481e-001 9.531975e-001
      outer loop
         vertex 6.000000e+001 2.872080e+001 2.579074e+001
         vertex 0.000000e+000 2.872080e+001 2.579074e+001
         vertex 0.000000e+000 2.487720e+001 2.468379e+001
      endloop
   endfacet
   facet normal 0.000000e+000 -2.509539e-001 9.679991e-001
      outer loop
         vertex 6.000000e+001 2.872080e+001 2.579074e+001
         vertex 0.000000e+000 2.487720e+001 2.468379e+001
         vertex 6.000000e+001 2.487720e+001 2.468379e+001
      endloop
   endfacet
   facet normal 0.000000e+000 -1.464625e-001 9.892163e-001
      outer loop
         vertex 6.000000e+001 2.487720e+001 2.468379e+001
         vertex 0.000000e+000 2.487720e+001 2.468379e+001
         vertex 0.000000e+000 2.090627e+001 2.420399e+001
      endloop
   endfacet
   facet normal 0.000000e+000 -9.336550e-002 9.956319e-001
      outer loop
         vertex 6.000000e+001 2.487720e+001 2.468379e+001
         vertex 0.000000e+000 2.090627e+001 2.420399e+001
         vertex 6.000000e+001 2.090627e+001 2.420399e+001
      endloop
   endfacet
   facet normal 0.000000e+000 1.317215e-002 9.999133e-001
      outer loop
         vertex 6.000000e+001 2.090627e+001 2.420399e+001
         vertex 0.000000e+000 2.090627e+001 2.420399e+001
         vertex 0.000000e+000 1.690964e+001 2.436361e+001
      endloop
   endfacet
   facet normal 0.000000e+000 6.661277e-002 9.977790e-001
      outer loop
         vertex 6.000000e+001 2.090627e+001 2.420399e+001
         vertex 0.000000e+000 1.690964e+001 2.436361e+001
         vertex 6.000000e+001 1.690964e+001 2.436361e+001
      endloop
   endfacet
   facet normal 0.000000e+000 1.724696e-001 9.850149e-001
      outer loop
         vertex 6.000000e+001 1.690964e+001 2.436361e+001
         vertex 0.000000e+000 1.690964e+001 2.436361e+001
         vertex 0.000000e+000 1.298962e+001 2.515857e+001
      endloop
   endfacet
   facet normal 0.000000e+000 2.248859e-001 9.743851e-001
      outer loop
         vertex 6.000000e+001 1.690964e+001 2.436361e+001
         vertex 0.000000e+000 1.298962e+001 2.515857e+001
         vertex 6.000000e+001 1.298962e+001 2.515857e+001
      endloop
   endfacet
   facet normal 0.000000e+000 3.273523e-001 9.449024e-001
      outer loop
         vertex 6.000000e+001 1.298962e+001 2.515857e+001
         vertex 0.000000e+000 1.298962e+001 2.515857e+001
         vertex 0.000000e+000 9.246549e+000 2.656852e+001
      endloop
   endfacet
   facet normal 0.000000e+000 3.774025e-001 9.260494e-001
      outer loop
         vertex 6.000000e+001 1.298962e+001 2.515857e+001
         vertex 0.000000e+000 9.246549e+000 2.656852e+001
         vertex 6.000000e+001 9.246549e+000 2.656852e+001
      endloop
   endfacet
   facet normal 0.000000e+000 4.738555e-001 8.806026e-001
      outer loop
         vertex 6.000000e+001 9.246549e+000 2.656852e+001
         vertex 0.000000e+000 9.246549e+000 2.656852e+001
         vertex 0.000000e+000 5.776243e+000 2.855736e+001
      endloop
   endfacet
   facet normal 0.000000e+000 5.202585e-001 8.540089e-001
      outer loop
         vertex 6.000000e+001 9.246549e+000 2.656852e+001
         vertex 0.000000e+000 5.776243e+000 2.855736e+001
         vertex 6.000000e+001 5.776243e+000 2.855736e+001
      endloop
   endfacet
   facet normal 0.000000e+000 6.082292e-001 7.937615e-001
      outer loop
         vertex 6.000000e+001 5.776243e+000 2.855736e+001
         vertex 0.000000e+000 5.776243e+000 2.855736e+001
         vertex 0.000000e+000 2.667536e+000 3.107420e+001
      endloop
   endfacet
   facet normal 0.000000e+000 6.497970e-001 7.601078e-001
      outer loop
         vertex 6.000000e+001 5.776243e+000 2.855736e+001
         vertex 0.000000e+000 2.667536e+000 3.107420e+001
         vertex 6.000000e+001 2.667536e+000 3.107420e+001
      endloop
   endfacet
   facet normal 0.000000e+000 7.270336e-001 6.866019e-001
      outer loop
         vertex 6.000000e+001 2.667536e+000 3.107420e+001
         vertex 0.000000e+000 2.667536e+000 3.107420e+001
         vertex 0.000000e+000 0.000000e+000 3.405460e+001
      endloop
   endfacet
   facet normal 0.000000e+000 7.627023e-001 6.467497e-001
      outer loop
         vertex 6.000000e+001 2.667536e+000 3.107420e+001
         vertex 0.000000e+000 0.000000e+000 3.405460e+001
         vertex 6.000000e+001 0.000000e+000 3.405460e+001
      endloop
   endfacet
   facet normal 0.000000e+000 8.674930e-001 4.974493e-001
      outer loop
         vertex 6.000000e+001 3.383101e+001 2.489402e+001
         vertex 0.000000e+000 3.383101e+001 2.489402e+001
         vertex 6.000000e+001 3.233866e+001 2.749650e+001
      endloop
   endfacet
   facet normal 0.000000e+000 8.674930e-001 4.974493e-001
      outer loop
         vertex 6.000000e+001 3.233866e+001 2.749650e+001
         vertex 0.000000e+000 3.383101e+001 2.489402e+001
         vertex 0.000000e+000 3.233866e+001 2.749650e+001
      endloop
   endfacet
   facet normal 0.000000e+000 -6.758432e-001 -7.370454e-001
      outer loop
         vertex 4.999999e+000 0.000000e+000 2.948882e+001
         vertex 0.000000e+000 0.000000e+000 2.948882e+001
         vertex 0.000000e+000 3.070278e+000 2.680797e+001
      endloop
   endfacet
   facet normal 0.000000e+000 -6.392059e-001 -7.690357e-001
      outer loop
         vertex 4.999999e+000 0.000000e+000 2.948882e+001
         vertex 0.000000e+000 3.070278e+000 2.680797e+001
         vertex 4.999999e+000 3.070278e+000 2.680797e+001
      endloop
   endfacet
   facet normal 0.000000e+000 -5.616751e-001 -8.273579e-001
      outer loop
         vertex 4.999999e+000 3.070278e+000 2.680797e+001
         vertex 0.000000e+000 3.070278e+000 2.680797e+001
         vertex 0.000000e+000 6.497241e+000 2.460129e+001
      endloop
   endfacet
   facet normal 0.000000e+000 -5.207815e-001 -8.536900e-001
      outer loop
         vertex 4.999999e+000 3.070278e+000 2.680797e+001
         vertex 0.000000e+000 6.497241e+000 2.460129e+001
         vertex 4.999999e+000 6.497241e+000 2.460129e+001
      endloop
   endfacet
   facet normal 0.000000e+000 -4.356046e-001 -9.001381e-001
      outer loop
         vertex 4.999999e+000 6.497241e+000 2.460129e+001
         vertex 0.000000e+000 6.497241e+000 2.460129e+001
         vertex 0.000000e+000 1.020827e+001 2.291553e+001
      endloop
   endfacet
   facet normal 0.000000e+000 -3.913213e-001 -9.202541e-001
      outer loop
         vertex 4.999999e+000 6.497241e+000 2.460129e+001
         vertex 0.000000e+000 1.020827e+001 2.291553e+001
         vertex 4.999999e+000 1.020827e+001 2.291553e+001
      endloop
   endfacet
   facet normal 0.000000e+000 -3.003034e-001 -9.538438e-001
      outer loop
         vertex 4.999999e+000 1.020827e+001 2.291553e+001
         vertex 0.000000e+000 1.020827e+001 2.291553e+001
         vertex 0.000000e+000 1.412472e+001 2.178641e+001
      endloop
   endfacet
   facet normal 0.000000e+000 -2.535688e-001 -9.673173e-001
      outer loop
         vertex 4.999999e+000 1.020827e+001 2.291553e+001
         vertex 0.000000e+000 1.412472e+001 2.178641e+001
         vertex 4.999999e+000 1.412472e+001 2.178641e+001
      endloop
   endfacet
   facet normal 0.000000e+000 -1.586386e-001 -9.873368e-001
      outer loop
         vertex 4.999999e+000 1.412472e+001 2.178641e+001
         vertex 0.000000e+000 1.412472e+001 2.178641e+001
         vertex 0.000000e+000 1.816361e+001 2.123787e+001
      endloop
   endfacet
   facet normal 0.000000e+000 -1.104429e-001 -9.938825e-001
      outer loop
         vertex 4.999999e+000 1.412472e+001 2.178641e+001
         vertex 0.000000e+000 1.816361e+001 2.123787e+001
         vertex 4.999999e+000 1.816361e+001 2.123787e+001
      endloop
   endfacet
   facet normal 0.000000e+000 -1.361202e-002 -9.999073e-001
      outer loop
         vertex 4.999999e+000 1.816361e+001 2.123787e+001
         vertex 0.000000e+000 1.816361e+001 2.123787e+001
         vertex 0.000000e+000 2.223935e+001 2.128152e+001
      endloop
   endfacet
   facet normal 0.000000e+000 3.502328e-002 -9.993865e-001
      outer loop
         vertex 4.999999e+000 1.816361e+001 2.123787e+001
         vertex 0.000000e+000 2.223935e+001 2.128152e+001
         vertex 4.999999e+000 2.223935e+001 2.128152e+001
      endloop
   endfacet
   facet normal 0.000000e+000 1.024470e-001 -9.947385e-001
      outer loop
         vertex 4.999999e+000 2.223935e+001 2.128152e+001
         vertex 0.000000e+000 2.223935e+001 2.128152e+001
         vertex 4.999999e+000 2.383101e+001 2.146080e+001
      endloop
   endfacet
   facet normal 0.000000e+000 1.506113e-001 -9.885930e-001
      outer loop
         vertex 4.999999e+000 2.383101e+001 2.146080e+001
         vertex 0.000000e+000 2.223935e+001 2.128152e+001
         vertex 0.000000e+000 2.626556e+001 2.191644e+001
      endloop
   endfacet
   facet normal 0.000000e+000 1.984531e-001 -9.801104e-001
      outer loop
         vertex 4.999999e+000 2.383101e+001 2.146080e+001
         vertex 0.000000e+000 2.626556e+001 2.191644e+001
         vertex 7.429411e+000 2.626042e+001 2.194166e+001
      endloop
   endfacet
   facet normal 0.000000e+000 2.340059e-001 -9.722352e-001
      outer loop
         vertex 7.429411e+000 2.626042e+001 2.194166e+001
         vertex 0.000000e+000 2.626556e+001 2.191644e+001
         vertex 8.000000e+000 2.683101e+001 2.205460e+001
      endloop
   endfacet
   facet normal 0.000000e+000 2.808934e-001 -9.597390e-001
      outer loop
         vertex 8.000000e+000 2.683101e+001 2.205460e+001
         vertex 0.000000e+000 2.626556e+001 2.191644e+001
         vertex 0.000000e+000 3.015693e+001 2.312917e+001
      endloop
   endfacet
   facet normal 0.000000e+000 2.875420e-001 -9.577680e-001
      outer loop
         vertex 8.000000e+000 2.683101e+001 2.205460e+001
         vertex 0.000000e+000 3.015693e+001 2.312917e+001
         vertex 5.200000e+001 2.683101e+001 2.205460e+001
      endloop
   endfacet
   facet normal 0.000000e+000 2.809017e-001 -9.597365e-001
      outer loop
         vertex 5.200000e+001 2.683101e+001 2.205460e+001
         vertex 6.000000e+001 3.015693e+001 2.312917e+001
         vertex 5.257059e+001 2.626042e+001 2.194166e+001
      endloop
   endfacet
   facet normal 0.000000e+000 2.742354e-001 -9.616626e-001
      outer loop
         vertex 5.257059e+001 2.626042e+001 2.194166e+001
         vertex 6.000000e+001 3.015693e+001 2.312917e+001
         vertex 6.000000e+001 2.626556e+001 2.191644e+001
      endloop
   endfacet
   facet normal 0.000000e+000 1.984531e-001 -9.801104e-001
      outer loop
         vertex 5.257059e+001 2.626042e+001 2.194166e+001
         vertex 6.000000e+001 2.626556e+001 2.191644e+001
         vertex 5.500000e+001 2.383101e+001 2.146080e+001
      endloop
   endfacet
   facet normal 0.000000e+000 1.506113e-001 -9.885930e-001
      outer loop
         vertex 5.500000e+001 2.383101e+001 2.146080e+001
         vertex 6.000000e+001 2.626556e+001 2.191644e+001
         vertex 5.500000e+001 2.223935e+001 2.128152e+001
      endloop
   endfacet
   facet normal 0.000000e+000 1.317030e-001 -9.912892e-001
      outer loop
         vertex 6.000000e+001 2.626556e+001 2.191644e+001
         vertex 6.000000e+001 2.223935e+001 2.128152e+001
         vertex 5.500000e+001 2.223935e+001 2.128152e+001
      endloop
   endfacet
   facet normal 0.000000e+000 3.502328e-002 -9.993865e-001
      outer loop
         vertex 5.500000e+001 2.223935e+001 2.128152e+001
         vertex 6.000000e+001 2.223935e+001 2.128152e+001
         vertex 6.000000e+001 1.816361e+001 2.123787e+001
      endloop
   endfacet
   facet normal 0.000000e+000 -1.361201e-002 -9.999073e-001
      outer loop
         vertex 5.500000e+001 2.223935e+001 2.128152e+001
         vertex 6.000000e+001 1.816361e+001 2.123787e+001
         vertex 5.500000e+001 1.816361e+001 2.123787e+001
      endloop
   endfacet
   facet normal 0.000000e+000 -1.104429e-001 -9.938825e-001
      outer loop
         vertex 5.500000e+001 1.816361e+001 2.123787e+001
         vertex 6.000000e+001 1.816361e+001 2.123787e+001
         vertex 6.000000e+001 1.412472e+001 2.178641e+001
      endloop
   endfacet
   facet normal 0.000000e+000 -1.586386e-001 -9.873368e-001
      outer loop
         vertex 5.500000e+001 1.816361e+001 2.123787e+001
         vertex 6.000000e+001 1.412472e+001 2.178641e+001
         vertex 5.500000e+001 1.412472e+001 2.178641e+001
      endloop
   endfacet
   facet normal 0.000000e+000 -2.535688e-001 -9.673173e-001
      outer loop
         vertex 5.500000e+001 1.412472e+001 2.178641e+001
         vertex 6.000000e+001 1.412472e+001 2.178641e+001
         vertex 6.000000e+001 1.020827e+001 2.291553e+001
      endloop
   endfacet
   facet normal 0.000000e+000 -3.003034e-001 -9.538438e-001
      outer loop
         vertex 5.500000e+001 1.412472e+001 2.178641e+001
         vertex 6.000000e+001 1.020827e+001 2.291553e+001
         vertex 5.500000e+001 1.020827e+001 2.291553e+001
      endloop
   endfacet
   facet normal 0.000000e+000 -3.913213e-001 -9.202541e-001
      outer loop
         vertex 5.500000e+001 1.020827e+001 2.291553e+001
         vertex 6.000000e+001 1.020827e+001 2.291553e+001
         vertex 6.000000e+001 6.497241e+000 2.460129e+001
      endloop
   endfacet
   facet normal 0.000000e+000 -4.356046e-001 -9.001381e-001
      outer loop
         vertex 5.500000e+001 1.020827e+001 2.291553e+001
         vertex 6.000000e+001 6.497241e+000 2.460129e+001
         vertex 5.500000e+001 6.497241e+000 2.460129e+001
      endloop
   endfacet
   facet normal 0.000000e+000 -5.207815e-001 -8.536900e-001
      outer loop
         vertex 5.500000e+001 6.497241e+000 2.460129e+001
         vertex 6.000000e+001 6.497241e+000 2.460129e+001
         vertex 6.000000e+001 3.070278e+000 2.680797e+001
      endloop
   endfacet
   facet normal 0.000000e+000 -5.616750e-001 -8.273579e-001
      outer loop
         vertex 5.500000e+001 6.497241e+000 2.460129e+001
         vertex 6.000000e+001 3.070278e+000 2.680797e+001
         vertex 5.500000e+001 3.070278e+000 2.680797e+001
      endloop
   endfacet
   facet normal 0.000000e+000 -6.392059e-001 -7.690357e-001
      outer loop
         vertex 5.500000e+001 3.070278e+000 2.680797e+001
         vertex 6.000000e+001 3.070278e+000 2.680797e+001
         vertex 6.000000e+001 0.000000e+000 2.948882e+001
      endloop
   endfacet
   facet normal 0.000000e+000 -6.758432e-001 -7.370454e-001
      outer loop
         vertex 5.500000e+001 3.070278e+000 2.680797e+001
         vertex 6.000000e+001 0.000000e+000 2.948882e+001
         vertex 5.500000e+001 0.000000e+000 2.948882e+001
      endloop
   endfacet
   facet normal 0.000000e+000 3.272050e-001 -9.449534e-001
      outer loop
         vertex 5.200000e+001 2.683101e+001 2.205460e+001
         vertex 0.000000e+000 3.015693e+001 2.312917e+001
         vertex 6.000000e+001 3.015693e+001 2.312917e+001
      endloop
   endfacet
   facet normal 0.000000e+000 4.109401e-001 -9.116623e-001
      outer loop
         vertex 6.000000e+001 3.015693e+001 2.312917e+001
         vertex 0.000000e+000 3.015693e+001 2.312917e+001
         vertex 0.000000e+000 3.383101e+001 2.489402e+001
      endloop
   endfacet
   facet normal 0.000000e+000 4.547824e-001 -8.906026e-001
      outer loop
         vertex 6.000000e+001 3.015693e+001 2.312917e+001
         vertex 0.000000e+000 3.383101e+001 2.489402e+001
         vertex 6.000000e+001 3.383101e+001 2.489402e+001
      endloop
   endfacet
   facet normal -1.000000e+000 0.000000e+000 0.000000e+000
      outer loop
         vertex 0.000000e+000 1.298962e+001 2.515857e+001
         vertex 0.000000e+000 1.020827e+001 2.291553e+001
         vertex 0.000000e+000 9.246549e+000 2.656852e+001
      endloop
   endfacet
   facet normal -1.000000e+000 0.000000e+000 0.000000e+000
      outer loop
         vertex 0.000000e+000 9.246549e+000 2.656852e+001
         vertex 0.000000e+000 1.020827e+001 2.291553e+001
         vertex 0.000000e+000 6.497241e+000 2.460129e+001
      endloop
   endfacet
   facet normal -1.000000e+000 0.000000e+000 0.000000e+000
      outer loop
         vertex 0.000000e+000 9.246549e+000 2.656852e+001
         vertex 0.000000e+000 6.497241e+000 2.460129e+001
         vertex 0.000000e+000 5.776243e+000 2.855736e+001
      endloop
   endfacet
   facet normal -1.000000e+000 0.000000e+000 0.000000e+000
      outer loop
         vertex 0.000000e+000 5.776243e+000 2.855736e+001
         vertex 0.000000e+000 6.497241e+000 2.460129e+001
         vertex 0.000000e+000 3.070278e+000 2.680797e+001
      endloop
   endfacet
   facet normal -1.000000e+000 0.000000e+000 0.000000e+000
      outer loop
         vertex 0.000000e+000 5.776243e+000 2.855736e+001
         vertex 0.000000e+000 3.070278e+000 2.680797e+001
         vertex 0.000000e+000 2.667536e+000 3.107420e+001
      endloop
   endfacet
   facet normal -1.000000e+000 0.000000e+000 0.000000e+000
      outer loop
         vertex 0.000000e+000 2.667536e+000 3.107420e+001
         vertex 0.000000e+000 3.070278e+000 2.680797e+001
         vertex 0.000000e+000 0.000000e+000 2.948882e+001
      endloop
   endfacet
   facet normal -1.000000e+000 0.000000e+000 0.000000e+000
      outer loop
         vertex 0.000000e+000 2.667536e+000 3.107420e+001
         vertex 0.000000e+000 0.000000e+000 2.948882e+001
         vertex 0.000000e+000 0.000000e+000 3.405460e+001
      endloop
   endfacet
   facet normal -1.000000e+000 0.000000e+000 0.000000e+000
      outer loop
         vertex 0.000000e+000 3.233866e+001 2.749650e+001
         vertex 0.000000e+000 3.383101e+001 2.489402e+001
         vertex 0.000000e+000 2.872080e+001 2.579074e+001
      endloop
   endfacet
   facet normal -1.000000e+000 0.000000e+000 0.000000e+000
      outer loop
         vertex 0.000000e+000 2.872080e+001 2.579074e+001
         vertex 0.000000e+000 3.383101e+001 2.489402e+001
         vertex 0.000000e+000 3.015693e+001 2.312917e+001
      endloop
   endfacet
   facet normal -1.000000e+000 0.000000e+000 0.000000e+000
      outer loop
         vertex 0.000000e+000 2.872080e+001 2.579074e+001
         vertex 0.000000e+000 3.015693e+001 2.312917e+001
         vertex 0.000000e+000 2.487720e+001 2.468379e+001
      endloop
   endfacet
   facet normal -1.000000e+000 0.000000e+000 0.000000e+000
      outer loop
         vertex 0.000000e+000 2.487720e+001 2.468379e+001
         vertex 0.000000e+000 3.015693e+001 2.312917e+001
         vertex 0.000000e+000 2.626556e+001 2.191644e+001
      endloop
   endfacet
   facet normal -1.000000e+000 0.000000e+000 0.000000e+000
      outer loop
         vertex 0.000000e+000 2.487720e+001 2.468379e+001
         vertex 0.000000e+000 2.626556e+001 2.191644e+001
         vertex 0.000000e+000 2.090627e+001 2.420399e+001
      endloop
   endfacet
   facet normal -1.000000e+000 0.000000e+000 0.000000e+000
      outer loop
         vertex 0.000000e+000 2.090627e+001 2.420399e+001
         vertex 0.000000e+000 2.626556e+001 2.191644e+001
         vertex 0.000000e+000 2.223935e+001 2.128152e+001
      endloop
   endfacet
   facet normal -1.000000e+000 0.000000e+000 0.000000e+000
      outer loop
         vertex 0.000000e+000 2.090627e+001 2.420399e+001
         vertex 0.000000e+000 2.223935e+001 2.128152e+001
         vertex 0.000000e+000 1.690964e+001 2.436361e+001
      endloop
   endfacet
   facet normal -1.000000e+000 0.000000e+000 0.000000e+000
      outer loop
         vertex 0.000000e+000 1.690964e+001 2.436361e+001
         vertex 0.000000e+000 2.223935e+001 2.128152e+001
         vertex 0.000000e+000 1.816361e+001 2.123787e+001
      endloop
   endfacet
   facet normal -1.000000e+000 0.000000e+000 0.000000e+000
      outer loop
         vertex 0.000000e+000 1.690964e+001 2.436361e+001
         vertex 0.000000e+000 1.816361e+001 2.123787e+001
         vertex 0.000000e+000 1.298962e+001 2.515857e+001
      endloop
   endfacet
   facet normal -1.000000e+000 0.000000e+000 0.000000e+000
      outer loop
         vertex 0.000000e+000 1.298962e+001 2.515857e+001
         vertex 0.000000e+000 1.816361e+001 2.123787e+001
         vertex 0.000000e+000 1.412472e+001 2.178641e+001
      endloop
   endfacet
   facet normal -1.000000e+000 0.000000e+000 0.000000e+000
      outer loop
         vertex 0.000000e+000 1.298962e+001 2.515857e+001
         vertex 0.000000e+000 1.412472e+001 2.178641e+001
         vertex 0.000000e+000 1.020827e+001 2.291553e+001
      endloop
   endfacet
   facet normal 1.000000e+000 0.000000e+000 0.000000e+000
      outer loop
         vertex 6.000000e+001 1.298962e+001 2.515857e+001
         vertex 6.000000e+001 9.246549e+000 2.656852e+001
         vertex 6.000000e+001 6.497241e+000 2.460129e+001
      endloop
   endfacet
   facet normal 1.000000e+000 0.000000e+000 0.000000e+000
      outer loop
         vertex 6.000000e+001 6.497241e+000 2.460129e+001
         vertex 6.000000e+001 9.246549e+000 2.656852e+001
         vertex 6.000000e+001 3.070278e+000 2.680797e+001
      endloop
   endfacet
   facet normal 1.000000e+000 0.000000e+000 0.000000e+000
      outer loop
         vertex 6.000000e+001 3.070278e+000 2.680797e+001
         vertex 6.000000e+001 9.246549e+000 2.656852e+001
         vertex 6.000000e+001 5.776243e+000 2.855736e+001
      endloop
   endfacet
   facet normal 1.000000e+000 0.000000e+000 0.000000e+000
      outer loop
         vertex 6.000000e+001 3.070278e+000 2.680797e+001
         vertex 6.000000e+001 5.776243e+000 2.855736e+001
         vertex 6.000000e+001 0.000000e+000 2.948882e+001
      endloop
   endfacet
   facet normal 1.000000e+000 0.000000e+000 0.000000e+000
      outer loop
         vertex 6.000000e+001 0.000000e+000 2.948882e+001
         vertex 6.000000e+001 5.776243e+000 2.855736e+001
         vertex 6.000000e+001 2.667536e+000 3.107420e+001
      endloop
   endfacet
   facet normal 1.000000e+000 0.000000e+000 0.000000e+000
      outer loop
         vertex 6.000000e+001 0.000000e+000 2.948882e+001
         vertex 6.000000e+001 2.667536e+000 3.107420e+001
         vertex 6.000000e+001 0.000000e+000 3.405460e+001
      endloop
   endfacet
   facet normal 1.000000e+000 0.000000e+000 0.000000e+000
      outer loop
         vertex 6.000000e+001 3.383101e+001 2.489402e+001
         vertex 6.000000e+001 3.233866e+001 2.749650e+001
         vertex 6.000000e+001 3.015693e+001 2.312917e+001
      endloop
   endfacet
   facet normal 1.000000e+000 0.000000e+000 0.000000e+000
      outer loop
         vertex 6.000000e+001 3.015693e+001 2.312917e+001
         vertex 6.000000e+001 3.233866e+001 2.749650e+001
         vertex 6.000000e+001 2.872080e+001 2.579074e+001
      endloop
   endfacet
   facet normal 1.000000e+000 0.000000e+000 0.000000e+000
      outer loop
         vertex 6.000000e+001 3.015693e+001 2.312917e+001
         vertex 6.000000e+001 2.872080e+001 2.579074e+001
         vertex 6.000000e+001 2.626556e+001 2.191644e+001
      endloop
   endfacet
   facet normal 1.000000e+000 0.000000e+000 0.000000e+000
      outer loop
         vertex 6.000000e+001 2.626556e+001 2.191644e+001
         vertex 6.000000e+001 2.872080e+001 2.579074e+001
         vertex 6.000000e+001 2.487720e+001 2.468379e+001
      endloop
   endfacet
   facet normal 1.000000e+000 0.000000e+000 0.000000e+000
      outer loop
         vertex 6.000000e+001 2.626556e+001 2.191644e+001
         vertex 6.000000e+001 2.487720e+001 2.468379e+001
         vertex 6.000000e+001 2.223935e+001 2.128152e+001
      endloop
   endfacet
   facet normal 1.000000e+000 0.000000e+000 0.000000e+000
      outer loop
         vertex 6.000000e+001 2.223935e+001 2.128152e+001
         vertex 6.000000e+001 2.487720e+001 2.468379e+001
         vertex 6.000000e+001 2.090627e+001 2.420399e+001
      endloop
   endfacet
   facet normal 1.000000e+000 0.000000e+000 0.000000e+000
      outer loop
         vertex 6.000000e+001 2.223935e+001 2.128152e+001
         vertex 6.000000e+001 2.090627e+001 2.420399e+001
         vertex 6.000000e+001 1.816361e+001 2.123787e+001
      endloop
   endfacet
   facet normal 1.000000e+000 0.000000e+000 0.000000e+000
      outer loop
         vertex 6.000000e+001 1.816361e+001 2.123787e+001
         vertex 6.000000e+001 2.090627e+001 2.420399e+001
         vertex 6.000000e+001 1.690964e+001 2.436361e+001
      endloop
   endfacet
   facet normal 1.000000e+000 0.000000e+000 0.000000e+000
      outer loop
         vertex 6.000000e+001 1.816361e+001 2.123787e+001
         vertex 6.000000e+001 1.690964e+001 2.436361e+001
         vertex 6.000000e+001 1.412472e+001 2.178641e+001
      endloop
   endfacet
   facet normal 1.000000e+000 0.000000e+000 0.000000e+000
      outer loop
         vertex 6.000000e+001 1.412472e+001 2.178641e+001
         vertex 6.000000e+001 1.690964e+001 2.436361e+001
         vertex 6.000000e+001 1.298962e+001 2.515857e+001
      endloop
   endfacet
   facet normal 1.000000e+000 0.000000e+000 0.000000e+000
      outer loop
         vertex 6.000000e+001 1.412472e+001 2.178641e+001
         vertex 6.000000e+001 1.298962e+001 2.515857e+001
         vertex 6.000000e+001 1.020827e+001 2.291553e+001
      endloop
   endfacet
   facet normal 1.000000e+000 0.000000e+000 0.000000e+000
      outer loop
         vertex 6.000000e+001 1.020827e+001 2.291553e+001
         vertex 6.000000e+001 1.298962e+001 2.515857e+001
         vertex 6.000000e+001 6.497241e+000 2.460129e+001
      endloop
   endfacet
   facet normal 1.000000e+000 0.000000e+000 0.000000e+000
      outer loop
         vertex 1.900000e+001 0.000000e+000 2.355460e+001
         vertex 1.900000e+001 0.000000e+000 1.805460e+001
         vertex 1.900000e+001 5.000000e+000 1.855460e+001
      endloop
   endfacet
   facet normal 1.000000e+000 0.000000e+000 0.000000e+000
      outer loop
         vertex 1.900000e+001 5.000000e+000 1.855460e+001
         vertex 1.900000e+001 0.000000e+000 1.805460e+001
         vertex 1.900000e+001 4.000000e+000 1.405460e+001
      endloop
   endfacet
   facet normal 1.000000e+000 0.000000e+000 0.000000e+000
      outer loop
         vertex 1.900000e+001 5.000000e+000 1.855460e+001
         vertex 1.900000e+001 4.000000e+000 1.405460e+001
         vertex 1.900000e+001 2.383101e+001 1.855460e+001
      endloop
   endfacet
   facet normal 1.000000e+000 0.000000e+000 0.000000e+000
      outer loop
         vertex 1.900000e+001 2.383101e+001 1.855460e+001
         vertex 1.900000e+001 4.000000e+000 1.405460e+001
         vertex 1.900000e+001 2.383101e+001 1.405460e+001
      endloop
   endfacet
   facet normal -1.000000e+000 0.000000e+000 0.000000e+000
      outer loop
         vertex 4.100000e+001 2.383101e+001 1.855460e+001
         vertex 4.100000e+001 2.383101e+001 1.405460e+001
         vertex 4.100000e+001 5.000000e+000 1.855460e+001
      endloop
   endfacet
   facet normal -1.000000e+000 0.000000e+000 0.000000e+000
      outer loop
         vertex 4.100000e+001 5.000000e+000 1.855460e+001
         vertex 4.100000e+001 2.383101e+001 1.405460e+001
         vertex 4.100000e+001 4.000000e+000 1.405460e+001
      endloop
   endfacet
   facet normal -1.000000e+000 0.000000e+000 0.000000e+000
      outer loop
         vertex 4.100000e+001 5.000000e+000 1.855460e+001
         vertex 4.100000e+001 4.000000e+000 1.405460e+001
         vertex 4.100000e+001 0.000000e+000 2.355460e+001
      endloop
   endfacet
   facet normal -1.000000e+000 0.000000e+000 0.000000e+000
      outer loop
         vertex 4.100000e+001 0.000000e+000 2.355460e+001
         vertex 4.100000e+001 4.000000e+000 1.405460e+001
         vertex 4.100000e+001 0.000000e+000 1.805460e+001
      endloop
   endfacet
   facet normal 0.000000e+000 0.000000e+000 -1.000000e+000
      outer loop
         vertex 1.600000e+001 2.683101e+001 1.855460e+001
         vertex 4.400000e+001 2.683101e+001 1.855460e+001
         vertex 4.100000e+001 2.383101e+001 1.855460e+001
      endloop
   endfacet
   facet normal 0.000000e+000 0.000000e+000 -1.000000e+000
      outer loop
         vertex 4.100000e+001 5.000000e+000 1.855460e+001
         vertex 1.900000e+001 5.000000e+000 1.855460e+001
         vertex 4.100000e+001 2.383101e+001 1.855460e+001
      endloop
   endfacet
   facet normal 0.000000e+000 0.000000e+000 -1.000000e+000
      outer loop
         vertex 4.100000e+001 2.383101e+001 1.855460e+001
         vertex 1.900000e+001 5.000000e+000 1.855460e+001
         vertex 1.900000e+001 2.383101e+001 1.855460e+001
      endloop
   endfacet
   facet normal 0.000000e+000 0.000000e+000 -1.000000e+000
      outer loop
         vertex 4.100000e+001 2.383101e+001 1.855460e+001
         vertex 1.900000e+001 2.383101e+001 1.855460e+001
         vertex 1.600000e+001 2.683101e+001 1.855460e+001
      endloop
   endfacet
   facet normal 0.000000e+000 -7.071068e-001 -7.071068e-001
      outer loop
         vertex 4.100000e+001 5.000000e+000 1.855460e+001
         vertex 4.100000e+001 0.000000e+000 2.355460e+001
         vertex 1.900000e+001 5.000000e+000 1.855460e+001
      endloop
   endfacet
   facet normal 0.000000e+000 -7.071068e-001 -7.071068e-001
      outer loop
         vertex 1.900000e+001 5.000000e+000 1.855460e+001
         vertex 4.100000e+001 0.000000e+000 2.355460e+001
         vertex 1.900000e+001 0.000000e+000 2.355460e+001
      endloop
   endfacet
   facet normal 7.071068e-001 7.071068e-001 0.000000e+000
      outer loop
         vertex 1.600000e+001 2.683101e+001 1.855460e+001
         vertex 1.900000e+001 2.383101e+001 1.855460e+001
         vertex 1.600000e+001 2.683101e+001 1.405460e+001
      endloop
   endfacet
   facet normal 7.071068e-001 7.071068e-001 0.000000e+000
      outer loop
         vertex 1.600000e+001 2.683101e+001 1.405460e+001
         vertex 1.900000e+001 2.383101e+001 1.855460e+001
         vertex 1.900000e+001 2.383101e+001 1.405460e+001
      endloop
   endfacet
   facet normal -7.071068e-001 7.071068e-001 0.000000e+000
      outer loop
         vertex 4.400000e+001 2.683101e+001 1.405460e+001
         vertex 4.100000e+001 2.383101e+001 1.405460e+001
         vertex 4.400000e+001 2.683101e+001 1.855460e+001
      endloop
   endfacet
   facet normal -7.071068e-001 7.071068e-001 0.000000e+000
      outer loop
         vertex 4.400000e+001 2.683101e+001 1.855460e+001
         vertex 4.100000e+001 2.383101e+001 1.405460e+001
         vertex 4.100000e+001 2.383101e+001 1.855460e+001
      endloop
   endfacet
   facet normal -7.071068e-001 7.071068e-001 0.000000e+000
      outer loop
         vertex 8.000000e+000 2.683101e+001 2.205460e+001
         vertex 8.000000e+000 2.683101e+001 1.405460e+001
         vertex 7.429411e+000 2.626042e+001 2.194166e+001
      endloop
   endfacet
   facet normal -7.071068e-001 7.071068e-001 0.000000e+000
      outer loop
         vertex 7.429411e+000 2.626042e+001 2.194166e+001
         vertex 8.000000e+000 2.683101e+001 1.405460e+001
         vertex 4.999999e+000 2.383101e+001 1.405460e+001
      endloop
   endfacet
   facet normal -7.071068e-001 7.071068e-001 0.000000e+000
      outer loop
         vertex 7.429411e+000 2.626042e+001 2.194166e+001
         vertex 4.999999e+000 2.383101e+001 1.405460e+001
         vertex 4.999999e+000 2.383101e+001 2.146080e+001
      endloop
   endfacet
   facet normal 7.071068e-001 7.071068e-001 0.000000e+000
      outer loop
         vertex 5.500000e+001 2.383101e+001 2.146080e+001
         vertex 5.500000e+001 2.383101e+001 1.405460e+001
         vertex 5.257059e+001 2.626042e+001 2.194166e+001
      endloop
   endfacet
   facet normal 7.071068e-001 7.071068e-001 0.000000e+000
      outer loop
         vertex 5.257059e+001 2.626042e+001 2.194166e+001
         vertex 5.500000e+001 2.383101e+001 1.405460e+001
         vertex 5.200000e+001 2.683101e+001 1.405460e+001
      endloop
   endfacet
   facet normal 7.071068e-001 7.071068e-001 0.000000e+000
      outer loop
         vertex 5.257059e+001 2.626042e+001 2.194166e+001
         vertex 5.200000e+001 2.683101e+001 1.405460e+001
         vertex 5.200000e+001 2.683101e+001 2.205460e+001
      endloop
   endfacet
endsolid